<svg version="1.1" xmlns="http://www.w3.org/2000/svg" xmlns:xlink="http://www.w3.org/1999/xlink" width="500" height="500" viewBox="50 165 392 172"><g data-paper-data="{&quot;description&quot;:&quot;Logo for WaveLog\n================\n\nThis logo was generated by MarkMaker at http://emblemmatic.org/markmaker/ and may be composed of elements designed by others.\n\nThe font is Romanesco designed by Astigmatic and released under the OFL license via Google Fonts: https://www.google.com/fonts/specimen/Romanesco. The font includes this copyright statement: Copyright (c) 2012 by Brian J. Bonislawsky DBA Astigmatic (AOETI) (astigma@astigmatic.com), with Reserved Font Name \\\&quot;Romanesco\\\n\nMarkMaker uses semantic data from the Princeton University WordNet database http://wordnet.princeton.edu and font descriptions from Google Fonts https://www.google.com/fonts.&quot;}" fill="#f0ebe3" fill-rule="nonzero" stroke="none" stroke-width="1" stroke-linecap="butt" stroke-linejoin="miter" stroke-miterlimit="10" stroke-dasharray="" stroke-dashoffset="0" font-family="none" font-weight="none" font-size="none" text-anchor="none" style="mix-blend-mode: normal"><g data-paper-data="{&quot;elementType&quot;:&quot;logo&quot;}"><g data-paper-data="{&quot;elementType&quot;:&quot;text&quot;}"><g data-paper-data="{&quot;baseline&quot;:67.67578125,&quot;elementType&quot;:&quot;row&quot;}"><g data-paper-data="{&quot;baselineProportion&quot;:0.7582056892778993,&quot;fontSize&quot;:100,&quot;baseline&quot;:67.67578125,&quot;elementType&quot;:&quot;word&quot;}"><path d="M135.7404,200.09141c-0.7922,1.95003 -1.82815,4.7532 -3.10786,8.40951c-1.27971,3.65631 -2.74223,7.84583 -4.38757,12.56856c-1.64534,4.72273 -3.41255,9.84156 -5.30165,15.35649c-1.88909,5.51493 -3.77818,11.10603 -5.66728,16.77331c-1.88909,5.66728 -3.74771,11.24314 -5.57587,16.72761c-1.82815,5.48446 -3.50396,10.60329 -5.02742,15.35649c6.3376,-3.04692 12.02011,-7.02316 17.04753,-11.9287c5.02742,-4.90555 9.44546,-10.3443 13.25411,-16.31627c3.80865,-5.97197 7.06886,-12.3248 9.78062,-19.0585c2.71176,-6.7337 4.92078,-13.45216 6.62706,-20.15539c1.70628,-6.70323 2.95551,-13.20841 3.74771,-19.51554c0.7922,-6.30713 1.1883,-12.08105 1.1883,-17.32176c0,-0.48751 -0.15235,-1.06642 -0.45704,-1.73675c-0.30469,-0.67032 -0.67032,-1.29494 -1.09689,-1.87386c-0.42657,-0.57892 -0.89884,-1.08166 -1.41682,-1.50823c-0.51798,-0.42657 -0.95978,-0.63985 -1.32541,-0.63985c-0.91408,0 -1.95003,0.33516 -3.10786,1.00548c-1.15783,0.67032 -2.10238,1.24924 -2.83364,1.73675l-1.1883,-1.82815c1.21877,-1.09689 2.55941,-2.22425 4.02194,-3.38208c1.46252,-1.15783 2.90981,-2.20902 4.34186,-3.15356c1.43205,-0.94455 2.80317,-1.70628 4.11335,-2.28519c1.31018,-0.57892 2.45277,-0.86837 3.42779,-0.86837c2.13285,0 4.03717,0.67032 5.71298,2.01097c1.67581,1.34065 3.10786,2.84887 4.29616,4.52468c1.1883,1.67581 2.10238,3.30591 2.74223,4.89031c0.63985,1.5844 0.95978,2.62035 0.95978,3.10786c0,2.55941 -0.3504,5.97197 -1.05119,10.23766c-0.70079,4.26569 -1.78245,9.06459 -3.24497,14.39671c-1.46252,5.33211 -3.33638,11.01463 -5.62157,17.04753c-2.28519,6.03291 -5.02742,12.08105 -8.22669,18.14442c-3.19927,6.06338 -6.85558,11.97441 -10.96892,17.73309c-4.11335,5.75868 -8.7142,11.01463 -13.80256,15.76782c-5.08836,4.7532 -10.72517,8.82084 -16.91042,12.20293c-6.18525,3.38208 -12.90372,5.77392 -20.15539,7.1755c-0.60938,0.12188 -1.12736,0.22852 -1.55393,0.31993c-0.42657,0.09141 -0.89884,0.18282 -1.41682,0.27422c-0.51798,0.09141 -1.11213,0.19805 -1.78245,0.31993c-0.67032,0.12188 -1.55393,0.24375 -2.65082,0.36563l-1.1883,-2.01097c0.54845,-1.03595 1.234,-2.57465 2.05667,-4.61609c0.82267,-2.04144 1.76722,-4.46374 2.83364,-7.26691c1.06642,-2.80317 2.19378,-5.8958 3.38208,-9.27788c1.1883,-3.38208 2.4223,-6.93175 3.70201,-10.64899c-6.09385,8.7142 -13.14747,15.844 -21.16088,21.3894c-8.01341,5.5454 -16.92566,9.68921 -26.73675,12.43144l-2.01097,-2.01097c0.85314,-2.62035 2.05667,-6.23096 3.6106,-10.83181c1.55393,-4.60085 3.29068,-9.81109 5.21024,-15.63071c1.91956,-5.81962 3.961,-12.03534 6.12431,-18.64717c2.16332,-6.61182 4.3114,-13.22364 6.44424,-19.83547c2.13285,-6.61182 4.18952,-12.99512 6.17002,-19.14991c1.9805,-6.15478 3.73248,-11.70018 5.25594,-16.6362c1.52346,-4.93601 2.75746,-9.03413 3.70201,-12.29433c0.94455,-3.26021 1.47776,-5.28641 1.59963,-6.07861c0,-0.67032 -0.18282,-1.27971 -0.54845,-1.82815c-2.25472,0.18282 -4.47898,0.45704 -6.67276,0.82267c-2.19378,0.36563 -4.14381,0.85314 -5.85009,1.46252c-0.7922,0.30469 -1.64534,0.80743 -2.55941,1.50823c-0.91408,0.70079 -1.76722,1.56917 -2.55941,2.60512c-0.7922,1.03595 -1.44729,2.17855 -1.96527,3.42779c-0.51798,1.24924 -0.77697,2.51371 -0.77697,3.79342c0,0.7922 0.06094,1.78245 0.18282,2.97075c0.12188,1.1883 0.36563,2.39183 0.73126,3.6106l-1.09689,1.09689c-3.10786,-2.25472 -5.57587,-4.61609 -7.40402,-7.0841c-1.82815,-2.46801 -2.74223,-4.76843 -2.74223,-6.90128c0,-1.21877 0.41133,-2.55941 1.234,-4.02194c0.82267,-1.46252 1.84339,-2.8184 3.06216,-4.06764c1.21877,-1.24924 2.52895,-2.30043 3.93053,-3.15356c1.40158,-0.85314 2.65082,-1.27971 3.74771,-1.27971c3.77818,0 7.922,0.15235 12.43144,0.45704c4.50945,0.30469 9.29311,0.45704 14.35101,0.45704c1.09689,0 2.07191,0 2.92505,0c0.85314,0 1.66057,-0.01523 2.4223,-0.0457c0.76173,-0.03047 1.5387,-0.06094 2.3309,-0.09141c0.7922,-0.03047 1.73675,-0.10664 2.83364,-0.22852l0.54845,0.91408c-1.09689,3.29068 -2.3766,7.16027 -3.83912,11.60878c-1.46252,4.44851 -3.03169,9.24741 -4.7075,14.39671c-1.67581,5.1493 -3.41255,10.51188 -5.21024,16.08775c-1.79768,5.57587 -3.58013,11.16697 -5.34735,16.77331c-1.76722,5.60634 -3.50396,11.10603 -5.21024,16.49909c-1.70628,5.39305 -3.29068,10.45094 -4.7532,15.17367c-1.46252,4.72273 -2.78793,8.98842 -3.97623,12.79707c-1.1883,3.80865 -2.14808,6.93175 -2.87934,9.36929c8.34857,-4.93601 15.72212,-11.18221 22.12066,-18.73857c6.39854,-7.55637 11.42596,-15.96587 15.08227,-25.22852v0.18282c1.21877,-3.71725 2.36137,-7.29738 3.42779,-10.7404c1.06642,-3.44302 2.01097,-6.55088 2.83364,-9.32358c0.82267,-2.7727 1.49299,-5.1493 2.01097,-7.1298c0.51798,-1.9805 0.8379,-3.39732 0.95978,-4.25046c0,-1.09689 -0.30469,-1.85862 -0.91408,-2.28519v-1.09689c1.64534,-0.48751 3.15356,-0.89884 4.52468,-1.234c1.37112,-0.33516 2.7727,-0.60938 4.20475,-0.82267c1.43205,-0.21328 2.97075,-0.38087 4.61609,-0.50274c1.64534,-0.12188 3.53443,-0.21328 5.66728,-0.27422l0.45704,0.54845z" data-paper-data="{&quot;elementType&quot;:&quot;letter&quot;,&quot;baseline&quot;:67.67578125,&quot;baselineProportion&quot;:0.9857752489331437,&quot;fontSize&quot;:100}"></path><path d="M220.2925,269.0128c-2.68129,3.22974 -5.56063,6.35283 -8.63803,9.36929c-3.07739,3.01645 -6.09385,5.68251 -9.04936,7.99817c-2.95551,2.31566 -5.71298,4.17428 -8.27239,5.57587c-2.55941,1.40158 -4.69226,2.10238 -6.39854,2.10238c-0.36563,0 -0.82267,-0.16758 -1.37112,-0.50274c-0.54845,-0.33516 -0.91408,-0.65509 -1.09689,-0.95978c-0.67032,-1.21877 -1.1426,-2.75746 -1.41682,-4.61609c-0.27422,-1.85862 -0.41133,-3.58013 -0.41133,-5.16453c0,-0.48751 0.07617,-1.17307 0.22852,-2.05667c0.15235,-0.88361 0.31993,-1.81292 0.50274,-2.78793c-2.01097,2.13285 -4.09811,4.18952 -6.26143,6.17002c-2.16332,1.9805 -4.23522,3.73248 -6.21572,5.25594c-1.9805,1.52346 -3.74771,2.74223 -5.30165,3.65631c-1.55393,0.91408 -2.69653,1.37112 -3.42779,1.37112c-0.48751,0 -0.89884,-0.18282 -1.234,-0.54845c-0.33516,-0.36563 -0.63985,-0.85314 -0.91408,-1.46252c-0.27422,-0.60938 -0.48751,-1.24924 -0.63985,-1.91956c-0.15235,-0.67032 -0.25899,-1.34065 -0.31993,-2.01097c-0.18282,-2.13285 -0.10664,-4.46374 0.22852,-6.99269c0.33516,-2.52895 0.80743,-5.1036 1.41682,-7.72395c0.60938,-2.62035 1.29494,-5.195 2.05667,-7.72395c0.76173,-2.52895 1.50823,-4.84461 2.23949,-6.94698c0.73126,-2.10238 1.37112,-3.88483 1.91956,-5.34735c0.54845,-1.46252 0.91408,-2.43754 1.09689,-2.92505c0.24375,-0.73126 0.65509,-1.59963 1.234,-2.60512c0.57892,-1.00548 1.234,-2.01097 1.96527,-3.01645c0.73126,-1.00548 1.47776,-1.9805 2.23949,-2.92505c0.76173,-0.94455 1.50823,-1.78245 2.23949,-2.51371c1.34065,-1.27971 3.07739,-2.65082 5.21024,-4.11335c2.13285,-1.46252 4.46374,-2.89458 6.99269,-4.29616c2.52895,-1.40158 5.13406,-2.7727 7.81536,-4.11335c2.68129,-1.34065 5.22547,-2.49848 7.63254,-3.47349c2.40707,-0.97502 4.55515,-1.76722 6.44424,-2.3766c1.88909,-0.60938 3.32115,-0.91408 4.29616,-0.91408c0.85314,0 1.59963,0.03047 2.23949,0.09141c0.63985,0.06094 1.1426,0.15235 1.50823,0.27422l0.18282,0.45704c-0.67032,0.85314 -1.49299,2.31566 -2.46801,4.38757c-0.97502,2.07191 -2.04144,4.47898 -3.19927,7.22121c-1.15783,2.74223 -2.34613,5.75868 -3.5649,9.04936c-1.21877,3.29068 -2.4223,6.61182 -3.6106,9.96344c-1.1883,3.35161 -2.30043,6.62706 -3.33638,9.82633c-1.03595,3.19927 -1.96527,6.10908 -2.78793,8.72943c-0.82267,2.62035 -1.46252,4.82937 -1.91956,6.62706c-0.45704,1.79768 -0.68556,2.97075 -0.68556,3.5192c0,1.09689 0.45704,1.64534 1.37112,1.64534c0.60938,-0.06094 1.5844,-0.41133 2.92505,-1.05119c1.34065,-0.63985 2.89458,-1.59963 4.66179,-2.87934c1.76722,-1.27971 3.67154,-2.84887 5.71298,-4.7075c2.04144,-1.85862 4.09811,-4.03717 6.17002,-6.53565l2.01097,1.91956M175.41133,281.17002c0.48751,0 1.12736,-0.27422 1.91956,-0.82267c0.7922,-0.54845 1.64534,-1.24924 2.55941,-2.10238c0.91408,-0.85314 1.88909,-1.84339 2.92505,-2.97075c1.03595,-1.12736 2.04144,-2.26996 3.01645,-3.42779c0.60938,-2.13285 1.29494,-4.47898 2.05667,-7.03839c0.76173,-2.55941 1.56917,-5.17977 2.4223,-7.86106c0.85314,-2.68129 1.73675,-5.36258 2.65082,-8.04388c0.91408,-2.68129 1.81292,-5.22547 2.69653,-7.63254c0.88361,-2.40707 1.72151,-4.60085 2.51371,-6.58135c0.7922,-1.9805 1.49299,-3.64107 2.10238,-4.98172c-0.97502,0.30469 -2.25472,0.7465 -3.83912,1.32541c-1.5844,0.57892 -3.35161,1.6301 -5.30165,3.15356c-1.64534,1.27971 -3.19927,3.19927 -4.66179,5.75868c-1.46252,2.55941 -2.80317,5.43876 -4.02194,8.63803c-1.21877,3.19927 -2.3309,6.50518 -3.33638,9.91773c-1.00548,3.41255 -1.85862,6.58135 -2.55941,9.5064c-0.70079,2.92505 -1.234,5.42352 -1.59963,7.49543c-0.36563,2.07191 -0.54845,3.32115 -0.54845,3.74771c0,0.48751 0.0457,0.92931 0.13711,1.32541c0.09141,0.3961 0.38087,0.59415 0.86837,0.59415z" data-paper-data="{&quot;elementType&quot;:&quot;letter&quot;,&quot;baseline&quot;:38.818359375,&quot;baselineProportion&quot;:0.9826946847960445,&quot;fontSize&quot;:100}"></path><path d="M222.76051,294.42413c-0.36563,0 -0.99025,-0.21328 -1.87386,-0.63985c-0.88361,-0.42657 -1.78245,-1.06642 -2.69653,-1.91956c-0.91408,-0.85314 -1.73675,-1.88909 -2.46801,-3.10786c-0.73126,-1.21877 -1.12736,-2.62035 -1.1883,-4.20475c-0.06094,-0.60938 0.24375,-2.10238 0.91408,-4.47898c0.67032,-2.3766 1.52346,-5.25594 2.55941,-8.63803c1.03595,-3.38208 2.14808,-7.03839 3.33638,-10.96892c1.1883,-3.93053 2.30043,-7.76965 3.33638,-11.51737c1.03595,-3.74771 1.90433,-7.20597 2.60512,-10.37477c0.70079,-3.1688 1.05119,-5.63681 1.05119,-7.40402c0,-0.48751 -0.06094,-0.91408 -0.18282,-1.27971c-0.12188,-0.36563 -0.24375,-0.67032 -0.36563,-0.91408c-0.18282,-0.24375 -0.36563,-0.45704 -0.54845,-0.63985v-1.27971c1.40158,-0.85314 3.03169,-1.56917 4.89031,-2.14808c1.85862,-0.57892 3.67154,-1.02072 5.43876,-1.32541c2.01097,-0.36563 4.11335,-0.63985 6.30713,-0.82267l0.45704,0.54845c-0.42657,3.22974 -1.11213,6.85558 -2.05667,10.87751c-0.94455,4.02194 -1.99573,8.15052 -3.15356,12.38574c-1.15783,4.23522 -2.34613,8.42474 -3.5649,12.56856c-1.21877,4.14381 -2.3309,7.99817 -3.33638,11.56307c-1.00548,3.5649 -1.82815,6.67276 -2.46801,9.32358c-0.63985,2.65082 -0.95978,4.58562 -0.95978,5.80439c0,0.85314 0.24375,1.27971 0.73126,1.27971c0.85314,0 2.10238,-0.82267 3.74771,-2.46801c1.64534,-1.64534 3.50396,-3.50396 5.57587,-5.57587c1.5844,-1.52346 3.07739,-3.44302 4.47898,-5.75868c1.40158,-2.31566 2.69653,-4.82937 3.88483,-7.54113c1.1883,-2.71176 2.25472,-5.53016 3.19927,-8.45521c0.94455,-2.92505 1.75198,-5.77392 2.4223,-8.54662c0.67032,-2.7727 1.1883,-5.37782 1.55393,-7.81536c0.36563,-2.43754 0.54845,-4.50945 0.54845,-6.21572c0,-1.27971 -0.21328,-2.11761 -0.63985,-2.51371c-0.42657,-0.3961 -0.94455,-0.51798 -1.55393,-0.36563c-0.60938,0.15235 -1.24924,0.47227 -1.91956,0.95978c-0.67032,0.48751 -1.21877,0.94455 -1.64534,1.37112l-1.55393,-1.73675c0.85314,-0.97502 1.82815,-2.07191 2.92505,-3.29068c1.09689,-1.21877 2.22425,-2.34613 3.38208,-3.38208c1.15783,-1.03595 2.28519,-1.91956 3.38208,-2.65082c1.09689,-0.73126 2.07191,-1.09689 2.92505,-1.09689c0.97502,0 1.99573,0.31993 3.06216,0.95978c1.06642,0.63985 2.05667,1.44729 2.97075,2.4223c0.91408,0.97502 1.66057,1.99573 2.23949,3.06216c0.57892,1.06642 0.86837,2.0262 0.86837,2.87934c0,4.63132 -0.67032,9.156 -2.01097,13.57404c-1.34065,4.41804 -3.18403,8.69896 -5.53016,12.84278c-2.34613,4.14381 -5.05789,8.12005 -8.13528,11.9287c-3.07739,3.80865 -6.35283,7.38879 -9.82633,10.7404c-1.5844,1.52346 -3.27544,3.10786 -5.07313,4.7532c-1.79768,1.64534 -3.62584,3.15356 -5.48446,4.52468c-1.85862,1.37112 -3.70201,2.49848 -5.53016,3.38208c-1.82815,0.88361 -3.50396,1.32541 -5.02742,1.32541z" data-paper-data="{&quot;elementType&quot;:&quot;letter&quot;,&quot;baseline&quot;:37.98828125,&quot;baselineProportion&quot;:0.9823232323232324,&quot;fontSize&quot;:100}"></path><path d="M276.69104,294.42413c-1.34065,0 -2.68129,-0.4418 -4.02194,-1.32541c-1.34065,-0.88361 -2.55941,-2.01097 -3.65631,-3.38208c-1.09689,-1.37112 -1.99573,-2.87934 -2.69653,-4.52468c-0.70079,-1.64534 -1.05119,-3.22974 -1.05119,-4.7532c0,-1.82815 0.22852,-3.90006 0.68556,-6.21572c0.45704,-2.31566 1.03595,-4.72273 1.73675,-7.22121c0.70079,-2.49848 1.47776,-4.96648 2.3309,-7.40402c0.85314,-2.43754 1.66057,-4.67703 2.4223,-6.71846c0.76173,-2.04144 1.43205,-3.79342 2.01097,-5.25594c0.57892,-1.46252 0.99025,-2.43754 1.234,-2.92505c1.21877,-2.92505 3.1231,-5.75868 5.71298,-8.50091c2.58988,-2.74223 5.42352,-5.17977 8.50091,-7.31261c3.07739,-2.13285 6.18525,-3.83912 9.32358,-5.11883c3.13833,-1.27971 5.8958,-1.91956 8.27239,-1.91956c1.95003,0 3.53443,1.06642 4.7532,3.19927c1.21877,2.13285 1.82815,4.81414 1.82815,8.04388c0,1.64534 -0.38087,3.26021 -1.1426,4.84461c-0.76173,1.5844 -1.73675,3.07739 -2.92505,4.47898c-1.1883,1.40158 -2.46801,2.71176 -3.83912,3.93053c-1.37112,1.21877 -2.66606,2.28519 -3.88483,3.19927l-19.1042,14.62523c-1.09689,4.14381 -1.99573,7.81536 -2.69653,11.01463c-0.70079,3.19927 -1.05119,5.37782 -1.05119,6.53565c0,1.76722 0.24375,3.10786 0.73126,4.02194c0.48751,0.91408 1.49299,1.37112 3.01645,1.37112c3.22974,0 6.58135,-1.59963 10.05484,-4.7989c3.47349,-3.19927 6.85558,-8.33333 10.14625,-15.40219l2.65082,1.73675c-1.64534,3.83912 -3.54966,7.34308 -5.71298,10.51188c-2.16332,3.1688 -4.49421,5.88056 -6.99269,8.13528c-2.49848,2.25472 -5.16453,4.0067 -7.99817,5.25594c-2.83364,1.24924 -5.71298,1.87386 -8.63803,1.87386M300.82267,227.05667c-1.21877,0 -2.52895,0.94455 -3.93053,2.83364c-1.40158,1.88909 -2.80317,4.34186 -4.20475,7.35832c-1.40158,3.01645 -2.7727,6.42901 -4.11335,10.23766c-1.34065,3.80865 -2.55941,7.60207 -3.65631,11.38026l15.53931,-12.34004c0.73126,-2.62035 1.40158,-5.195 2.01097,-7.72395c0.60938,-2.52895 0.91408,-4.43327 0.91408,-5.71298c0,-0.67032 -0.0457,-1.35588 -0.13711,-2.05667c-0.09141,-0.70079 -0.22852,-1.35588 -0.41133,-1.96527c-0.18282,-0.60938 -0.4418,-1.09689 -0.77697,-1.46252c-0.33516,-0.36563 -0.7465,-0.54845 -1.234,-0.54845z" data-paper-data="{&quot;elementType&quot;:&quot;letter&quot;,&quot;baseline&quot;:38.0859375,&quot;baselineProportion&quot;:0.982367758186398,&quot;fontSize&quot;:100}"></path><path d="M352.46801,194.14991c-1.52346,4.50945 -3.32115,9.64351 -5.39305,15.40219c-2.07191,5.75868 -4.18952,11.66971 -6.35283,17.73309c-2.16332,6.06338 -4.3114,12.08105 -6.44424,18.05302c-2.13285,5.97197 -4.02194,11.41073 -5.66728,16.31627c-1.64534,4.90555 -2.98598,9.09506 -4.02194,12.56856c-1.03595,3.47349 -1.55393,5.72821 -1.55393,6.76417c0,1.09689 0.45704,1.64534 1.37112,1.64534c0.60938,-0.06094 1.5844,-0.41133 2.92505,-1.05119c1.34065,-0.63985 2.89458,-1.59963 4.66179,-2.87934c1.76722,-1.27971 3.67154,-2.84887 5.71298,-4.7075c2.04144,-1.85862 4.09811,-4.03717 6.17002,-6.53565l2.01097,1.91956c-2.68129,3.22974 -5.56063,6.35283 -8.63803,9.36929c-3.07739,3.01645 -6.09385,5.68251 -9.04936,7.99817c-2.95551,2.31566 -5.71298,4.17428 -8.27239,5.57587c-2.55941,1.40158 -4.69226,2.10238 -6.39854,2.10238c-0.85314,0 -1.55393,-0.38087 -2.10238,-1.1426c-0.54845,-0.76173 -0.99025,-1.70628 -1.32541,-2.83364c-0.33516,-1.12736 -0.56368,-2.34613 -0.68556,-3.65631c-0.12188,-1.31018 -0.18282,-2.51371 -0.18282,-3.6106c0,-0.24375 0.01523,-0.62462 0.0457,-1.1426c0.03047,-0.51798 0.07617,-1.09689 0.13711,-1.73675c0.06094,-0.63985 0.13711,-1.27971 0.22852,-1.91956c0.09141,-0.63985 0.19805,-1.20353 0.31993,-1.69104c1.15783,-4.08288 2.51371,-8.53138 4.06764,-13.34552c1.55393,-4.81414 3.2145,-9.78062 4.98172,-14.89945c1.76722,-5.11883 3.59537,-10.2986 5.48446,-15.53931c1.88909,-5.24071 3.73248,-10.31383 5.53016,-15.21938c1.79768,-4.90555 3.48873,-9.53687 5.07313,-13.89397c1.5844,-4.3571 2.98598,-8.22669 4.20475,-11.60878c1.21877,-3.38208 2.17855,-6.15478 2.87934,-8.3181c0.70079,-2.16332 1.05119,-3.48873 1.05119,-3.97623c0,-1.34065 -0.3504,-2.26996 -1.05119,-2.78793c-0.70079,-0.51798 -1.56917,-0.7465 -2.60512,-0.68556c-1.03595,0.06094 -2.16332,0.28946 -3.38208,0.68556c-1.21877,0.3961 -2.34613,0.8379 -3.38208,1.32541l-1.1883,-2.46801c6.27666,-3.04692 11.31932,-5.17977 15.12797,-6.39854c3.80865,-1.21877 6.44424,-1.82815 7.90676,-1.82815c0.42657,0 0.92931,0.16758 1.50823,0.50274c0.57892,0.33516 1.11213,0.80743 1.59963,1.41682c0.48751,0.60938 0.91408,1.29494 1.27971,2.05667c0.36563,0.76173 0.54845,1.5387 0.54845,2.3309c0,0.48751 -0.70079,2.51371 -2.10238,6.07861c-1.40158,3.5649 -3.07739,8.24193 -5.02742,14.03108z" data-paper-data="{&quot;elementType&quot;:&quot;letter&quot;,&quot;baseline&quot;:66.9921875,&quot;baselineProportion&quot;:0.98989898989899,&quot;fontSize&quot;:100}"></path><path d="M348.35466,245.61243c1.46252,-3.53443 3.26021,-6.71846 5.39305,-9.5521c2.13285,-2.83364 4.47898,-5.24071 7.03839,-7.22121c2.55941,-1.9805 5.27118,-3.48873 8.13528,-4.52468c2.86411,-1.03595 5.75868,-1.55393 8.68373,-1.55393c1.27971,0 2.69653,0.3504 4.25046,1.05119c1.55393,0.70079 3.00122,1.66057 4.34186,2.87934c1.34065,1.21877 2.45277,2.69653 3.33638,4.43327c0.88361,1.73675 1.32541,3.64107 1.32541,5.71298c0,1.76722 -0.21328,3.79342 -0.63985,6.07861c-0.42657,2.28519 -0.97502,4.63132 -1.64534,7.03839c-0.67032,2.40707 -1.40158,4.7989 -2.19378,7.1755c-0.7922,2.3766 -1.55393,4.55515 -2.28519,6.53565c-0.73126,1.9805 -1.38635,3.67154 -1.96527,5.07313c-0.57892,1.40158 -0.99025,2.34613 -1.234,2.83364c-1.46252,3.59537 -3.26021,6.79464 -5.39305,9.59781c-2.13285,2.80317 -4.47898,5.195 -7.03839,7.1755c-2.55941,1.9805 -5.25594,3.48873 -8.08958,4.52468c-2.83364,1.03595 -5.71298,1.55393 -8.63803,1.55393c-1.27971,0 -2.69653,-0.33516 -4.25046,-1.00548c-1.55393,-0.67032 -3.00122,-1.6301 -4.34186,-2.87934c-1.34065,-1.24924 -2.45277,-2.727 -3.33638,-4.43327c-0.88361,-1.70628 -1.32541,-3.59537 -1.32541,-5.66728c0,-1.82815 0.21328,-3.88483 0.63985,-6.17002c0.42657,-2.28519 0.97502,-4.63132 1.64534,-7.03839c0.67032,-2.40707 1.40158,-4.7989 2.19378,-7.1755c0.7922,-2.3766 1.55393,-4.53991 2.28519,-6.48995c0.73126,-1.95003 1.37112,-3.64107 1.91956,-5.07313c0.54845,-1.43205 0.94455,-2.39183 1.1883,-2.87934M373.67459,227.78793c-1.40158,0 -2.90981,1.234 -4.52468,3.70201c-1.61487,2.46801 -3.22974,5.62157 -4.84461,9.46069c-1.61487,3.83912 -3.1688,8.02864 -4.66179,12.56856c-1.49299,4.53991 -2.80317,8.91225 -3.93053,13.117c-1.12736,4.20475 -2.04144,7.90676 -2.74223,11.10603c-0.70079,3.19927 -1.05119,5.34735 -1.05119,6.44424c0,1.76722 0.33516,3.04692 1.00548,3.83912c0.67032,0.7922 1.5844,1.1883 2.74223,1.1883c1.03595,0 2.13285,-0.71603 3.29068,-2.14808c1.15783,-1.43205 2.34613,-3.33638 3.5649,-5.71298c1.21877,-2.3766 2.4223,-5.11883 3.6106,-8.22669c1.1883,-3.10786 2.3309,-6.32236 3.42779,-9.64351c1.09689,-3.32115 2.11761,-6.62706 3.06216,-9.91773c0.94455,-3.29068 1.76722,-6.3376 2.46801,-9.14077c0.70079,-2.80317 1.24924,-5.22547 1.64534,-7.26691c0.3961,-2.04144 0.59415,-3.45826 0.59415,-4.25046c0,-1.76722 -0.33516,-3.06216 -1.00548,-3.88483c-0.67032,-0.82267 -1.55393,-1.234 -2.65082,-1.234z" data-paper-data="{&quot;elementType&quot;:&quot;letter&quot;,&quot;baseline&quot;:37.59765625,&quot;baselineProportion&quot;:0.9821428571428571,&quot;fontSize&quot;:100}"></path><path d="M430.34735,270.84095c-0.97502,3.22974 -1.96527,6.65753 -2.97075,10.28336c-1.00548,3.62584 -1.99573,7.26691 -2.97075,10.92322c-0.97502,3.65631 -1.91956,7.23644 -2.83364,10.7404c-0.91408,3.50396 -1.79768,6.71846 -2.65082,9.64351c-0.60938,2.13285 -1.75198,4.14381 -3.42779,6.03291c-1.67581,1.88909 -3.62584,3.6106 -5.85009,5.16453c-2.22425,1.55393 -4.58562,2.95551 -7.0841,4.20475c-2.49848,1.24924 -4.81414,2.28519 -6.94698,3.10786c-2.13285,0.82267 -3.961,1.46252 -5.48446,1.91956c-1.52346,0.45704 -2.46801,0.68556 -2.83364,0.68556c-0.54845,0 -1.29494,-0.06094 -2.23949,-0.18282c-0.94455,-0.12188 -1.69104,-0.36563 -2.23949,-0.73126c-0.67032,-0.36563 -1.41682,-1.05119 -2.23949,-2.05667c-0.82267,-1.00548 -1.61487,-2.17855 -2.3766,-3.5192c-0.76173,-1.34065 -1.46252,-2.75746 -2.10238,-4.25046c-0.63985,-1.49299 -1.08166,-2.87934 -1.32541,-4.15905l11.06033,-9.23218c1.15783,2.92505 2.40707,5.51493 3.74771,7.76965c0.54845,0.97502 1.15783,1.9348 1.82815,2.87934c0.67032,0.94455 1.37112,1.78245 2.10238,2.51371c0.73126,0.73126 1.49299,1.31018 2.28519,1.73675c0.7922,0.42657 1.5844,0.63985 2.3766,0.63985c0.60938,0 1.17307,-0.24375 1.69104,-0.73126c0.51798,-0.48751 1.00548,-1.11213 1.46252,-1.87386c0.45704,-0.76173 0.89884,-1.64534 1.32541,-2.65082c0.42657,-1.00548 0.85314,-2.05667 1.27971,-3.15356c0.48751,-1.40158 1.05119,-3.09263 1.69104,-5.07313c0.63985,-1.9805 1.31018,-4.11335 2.01097,-6.39854c0.70079,-2.28519 1.40158,-4.64656 2.10238,-7.0841c0.70079,-2.43754 1.38635,-4.84461 2.05667,-7.22121c0.67032,-2.3766 1.29494,-4.64656 1.87386,-6.80987c0.57892,-2.16332 1.08166,-4.09811 1.50823,-5.80439c-2.13285,2.62035 -4.3571,4.95125 -6.67276,6.99269c-2.31566,2.04144 -4.50945,3.74771 -6.58135,5.11883c-2.07191,1.37112 -3.9153,2.40707 -5.53016,3.10786c-1.61487,0.70079 -2.78793,1.05119 -3.5192,1.05119c-0.48751,0 -0.89884,-0.18282 -1.234,-0.54845c-0.33516,-0.36563 -0.63985,-0.85314 -0.91408,-1.46252c-0.27422,-0.60938 -0.48751,-1.24924 -0.63985,-1.91956c-0.15235,-0.67032 -0.25899,-1.34065 -0.31993,-2.01097c-0.18282,-2.13285 -0.10664,-4.46374 0.22852,-6.99269c0.33516,-2.52895 0.80743,-5.1036 1.41682,-7.72395c0.60938,-2.62035 1.29494,-5.195 2.05667,-7.72395c0.76173,-2.52895 1.50823,-4.84461 2.23949,-6.94698c0.73126,-2.10238 1.37112,-3.88483 1.91956,-5.34735c0.54845,-1.46252 0.91408,-2.43754 1.09689,-2.92505c0.24375,-0.73126 0.65509,-1.59963 1.234,-2.60512c0.57892,-1.00548 1.234,-2.01097 1.96527,-3.01645c0.73126,-1.00548 1.47776,-1.9805 2.23949,-2.92505c0.76173,-0.94455 1.50823,-1.78245 2.23949,-2.51371c1.34065,-1.27971 3.1231,-2.65082 5.34735,-4.11335c2.22425,-1.46252 4.64656,-2.89458 7.26691,-4.29616c2.62035,-1.40158 5.31688,-2.7727 8.08958,-4.11335c2.7727,-1.34065 5.40829,-2.49848 7.90676,-3.47349c2.49848,-0.97502 4.72273,-1.76722 6.67276,-2.3766c1.95003,-0.60938 3.41255,-0.91408 4.38757,-0.91408c0.85314,0 1.59963,0.03047 2.23949,0.09141c0.63985,0.06094 1.1426,0.15235 1.50823,0.27422l0.18282,0.45704c-0.91408,1.15783 -1.99573,3.07739 -3.24497,5.75868c-1.24924,2.68129 -2.54418,5.71298 -3.88483,9.09506c-1.34065,3.38208 -2.69653,6.93175 -4.06764,10.64899c-1.37112,3.71725 -2.63559,7.22121 -3.79342,10.51188c-1.15783,3.29068 -2.16332,6.15478 -3.01645,8.59232c-0.85314,2.43754 -1.40158,4.08288 -1.64534,4.93601M405.11883,281.17002c0.48751,0 1.20353,-0.27422 2.14808,-0.82267c0.94455,-0.54845 1.96527,-1.24924 3.06216,-2.10238c1.09689,-0.85314 2.22425,-1.84339 3.38208,-2.97075c1.15783,-1.12736 2.22425,-2.26996 3.19927,-3.42779c0.60938,-2.13285 1.29494,-4.47898 2.05667,-7.03839c0.76173,-2.55941 1.56917,-5.17977 2.4223,-7.86106c0.85314,-2.68129 1.73675,-5.36258 2.65082,-8.04388c0.91408,-2.68129 1.79768,-5.22547 2.65082,-7.63254c0.85314,-2.40707 1.67581,-4.60085 2.46801,-6.58135c0.7922,-1.9805 1.49299,-3.64107 2.10238,-4.98172c-0.48751,0.12188 -1.11213,0.28946 -1.87386,0.50274c-0.76173,0.21328 -1.61487,0.48751 -2.55941,0.82267c-0.94455,0.33516 -1.9348,0.76173 -2.97075,1.27971c-1.03595,0.51798 -2.04144,1.1426 -3.01645,1.87386c-1.64534,1.27971 -3.19927,3.19927 -4.66179,5.75868c-1.46252,2.55941 -2.80317,5.43876 -4.02194,8.63803c-1.21877,3.19927 -2.3309,6.50518 -3.33638,9.91773c-1.00548,3.41255 -1.85862,6.58135 -2.55941,9.5064c-0.70079,2.92505 -1.234,5.42352 -1.59963,7.49543c-0.36563,2.07191 -0.54845,3.32115 -0.54845,3.74771c0,0.48751 0.0457,0.92931 0.13711,1.32541c0.09141,0.3961 0.38087,0.59415 0.86837,0.59415z" data-paper-data="{&quot;elementType&quot;:&quot;letter&quot;,&quot;baseline&quot;:38.818359375,&quot;baselineProportion&quot;:0.6426839126919968,&quot;fontSize&quot;:100}"></path></g></g></g></g></g></svg>